<svg xmlns="http://www.w3.org/2000/svg" width="384" height="128" viewBox="0 0 384 128">
  <!-- Animation frames for character (4 directions x 4 frames) -->
  
  <!-- Down Animation (frames 0-3) -->
  <g id="down-1" transform="translate(0, 0)">
    <rect x="52" y="64" width="24" height="32" fill="#3F51B5" />
    <circle cx="64" cy="48" r="16" fill="#FFDBAC" />
    <path d="M64 32c-8.8 0-16 7.2-16 16 0 2.5 0.6 4.8 1.5 6.9 0 0 5.5-2.9 14.5-2.9s14.5 2.9 14.5 2.9c0.9-2.1 1.5-4.4 1.5-6.9C80 39.2 72.8 32 64 32z" fill="#794422" />
    <ellipse cx="58" cy="46" rx="2" ry="3" fill="#333333" />
    <ellipse cx="70" cy="46" rx="2" ry="3" fill="#333333" />
    <path d="M60 52c4 2 8 2 8 2s-1-2 0-2" stroke="#333333" fill="none" />
    <rect x="40" y="64" width="12" height="24" fill="#FFDBAC" />
    <rect x="76" y="64" width="12" height="24" fill="#FFDBAC" />
    <rect x="52" y="96" width="10" height="20" fill="#795548" />
    <rect x="66" y="96" width="10" height="20" fill="#795548" />
    <rect x="52" y="112" width="10" height="4" rx="2" fill="#4E342E" />
    <rect x="66" y="112" width="10" height="4" rx="2" fill="#4E342E" />
  </g>
  
  <g id="down-2" transform="translate(96, 0)">
    <rect x="52" y="64" width="24" height="32" fill="#3F51B5" />
    <circle cx="64" cy="48" r="16" fill="#FFDBAC" />
    <path d="M64 32c-8.8 0-16 7.2-16 16 0 2.5 0.6 4.8 1.5 6.9 0 0 5.5-2.9 14.5-2.9s14.5 2.9 14.5 2.9c0.9-2.1 1.5-4.4 1.5-6.9C80 39.2 72.8 32 64 32z" fill="#794422" />
    <ellipse cx="58" cy="46" rx="2" ry="3" fill="#333333" />
    <ellipse cx="70" cy="46" rx="2" ry="3" fill="#333333" />
    <path d="M60 52c4 2 8 2 8 2s-1-2 0-2" stroke="#333333" fill="none" />
    <rect x="40" y="64" width="12" height="24" fill="#FFDBAC" />
    <rect x="76" y="64" width="12" height="24" fill="#FFDBAC" />
    <rect x="52" y="96" width="10" height="20" fill="#795548" />
    <rect x="66" y="96" width="10" height="20" fill="#795548" />
    <rect x="50" y="112" width="10" height="4" rx="2" fill="#4E342E" />
    <rect x="68" y="112" width="10" height="4" rx="2" fill="#4E342E" />
  </g>
  
  <g id="down-3" transform="translate(192, 0)">
    <rect x="52" y="64" width="24" height="32" fill="#3F51B5" />
    <circle cx="64" cy="48" r="16" fill="#FFDBAC" />
    <path d="M64 32c-8.8 0-16 7.2-16 16 0 2.5 0.6 4.8 1.5 6.9 0 0 5.5-2.9 14.5-2.9s14.5 2.9 14.5 2.9c0.9-2.1 1.5-4.4 1.5-6.9C80 39.2 72.8 32 64 32z" fill="#794422" />
    <ellipse cx="58" cy="46" rx="2" ry="3" fill="#333333" />
    <ellipse cx="70" cy="46" rx="2" ry="3" fill="#333333" />
    <path d="M60 52c4 2 8 2 8 2s-1-2 0-2" stroke="#333333" fill="none" />
    <rect x="40" y="64" width="12" height="24" fill="#FFDBAC" />
    <rect x="76" y="64" width="12" height="24" fill="#FFDBAC" />
    <rect x="52" y="96" width="10" height="20" fill="#795548" />
    <rect x="66" y="96" width="10" height="20" fill="#795548" />
    <rect x="54" y="112" width="10" height="4" rx="2" fill="#4E342E" />
    <rect x="64" y="112" width="10" height="4" rx="2" fill="#4E342E" />
  </g>
  
  <g id="down-4" transform="translate(288, 0)">
    <rect x="52" y="64" width="24" height="32" fill="#3F51B5" />
    <circle cx="64" cy="48" r="16" fill="#FFDBAC" />
    <path d="M64 32c-8.8 0-16 7.2-16 16 0 2.5 0.6 4.8 1.5 6.9 0 0 5.5-2.9 14.5-2.9s14.5 2.9 14.5 2.9c0.9-2.1 1.5-4.4 1.5-6.9C80 39.2 72.8 32 64 32z" fill="#794422" />
    <ellipse cx="58" cy="46" rx="2" ry="3" fill="#333333" />
    <ellipse cx="70" cy="46" rx="2" ry="3" fill="#333333" />
    <path d="M60 52c4 2 8 2 8 2s-1-2 0-2" stroke="#333333" fill="none" />
    <rect x="40" y="64" width="12" height="24" fill="#FFDBAC" />
    <rect x="76" y="64" width="12" height="24" fill="#FFDBAC" />
    <rect x="52" y="96" width="10" height="20" fill="#795548" />
    <rect x="66" y="96" width="10" height="20" fill="#795548" />
    <rect x="52" y="112" width="10" height="4" rx="2" fill="#4E342E" />
    <rect x="66" y="112" width="10" height="4" rx="2" fill="#4E342E" />
  </g>
</svg>
