<svg xmlns="http://www.w3.org/2000/svg" width="200" height="200" viewBox="0 0 200 200">
  <!-- D-Pad Background -->
  <circle cx="100" cy="100" r="90" fill="#333333" opacity="0.7" />

  <!-- D-Pad Up Button -->
  <g id="up-button">
    <path d="M100 30 L130 80 L70 80 Z" fill="#666666" stroke="#FFFFFF" stroke-width="2" />
    <path d="M95 45 L105 45 L105 75 L95 75 Z" fill="#FFFFFF" />
  </g>

  <!-- D-Pad Right Button -->
  <g id="right-button">
    <path d="M170 100 L120 130 L120 70 Z" fill="#666666" stroke="#FFFFFF" stroke-width="2" />
    <path d="M155 95 L155 105 L125 105 L125 95 Z" fill="#FFFFFF" />
  </g>

  <!-- D-Pad Down Button -->
  <g id="down-button">
    <path d="M100 170 L70 120 L130 120 Z" fill="#666666" stroke="#FFFFFF" stroke-width="2" />
    <path d="M95 155 L105 155 L105 125 L95 125 Z" fill="#FFFFFF" />
  </g>

  <!-- D-Pad Left Button -->
  <g id="left-button">
    <path d="M30 100 L80 70 L80 130 Z" fill="#666666" stroke="#FFFFFF" stroke-width="2" />
    <path d="M45 95 L45 105 L75 105 L75 95 Z" fill="#FFFFFF" />
  </g>

  <!-- Center Circle -->
  <circle cx="100" cy="100" r="15" fill="#555555" stroke="#FFFFFF" stroke-width="2" />
</svg>
